<svg width="64" height="51" viewBox="0 0 64 51" fill="none" xmlns="http://www.w3.org/2000/svg">
<g clip-path="url(#clip0)">
<path d="M63.8504 26.813C63.8557 26.014 63.4571 25.2918 62.7827 24.8804L62.3756 24.6319C63.0655 22.6788 64.4701 15.9873 55.4983 7.83507C50.6864 3.46191 43.3661 0.829302 34.888 0.422119C27.2206 0.0507892 19.2746 1.5105 13.0761 4.41797C5.33415 8.04933 0.329389 14.0051 0.015735 19.9609C-0.182228 23.7229 1.39548 29.309 10.0356 34.5657C15.0703 37.6285 20.9998 38.7767 26.631 38.7767C30.358 38.7767 33.9522 38.2739 37.0681 37.4902L37.0664 38.139L33.2854 40.3311C32.185 40.9773 31.3255 42.4909 31.3298 43.7772C31.3315 44.5054 31.6169 45.0893 32.1105 45.3779C32.3282 45.505 32.5732 45.5682 32.8338 45.5682C33.1681 45.5682 33.5254 45.4641 33.8759 45.2574L37.1872 43.3377C37.2781 43.6014 37.4135 43.8455 37.5892 44.0607C36.8959 44.8178 36.422 45.8968 36.4246 46.8512C36.4262 47.5793 36.7116 48.1624 37.2053 48.4518C37.4229 48.5798 37.668 48.6422 37.9286 48.6422C38.2627 48.6422 38.6193 48.538 38.9706 48.3322L41.7198 46.7385L47.5627 50.2991C47.9312 50.5243 48.3383 50.637 48.7462 50.637C49.1336 50.637 49.5217 50.5354 49.8783 50.3307C49.9811 50.2717 50.0763 50.2042 50.167 50.1325L62.1057 42.1502C63.1872 41.4955 63.8548 40.2979 63.8513 39.0174L63.8136 27.198C63.8342 27.0717 63.8496 26.9445 63.8504 26.813ZM50.0797 33.8982C49.8877 33.7036 49.6743 33.5285 49.4369 33.3843L41.3076 28.4315L51.8151 22.1146C52.6454 21.6204 53.6747 21.6255 54.4999 22.13L61.7843 26.574C61.888 26.6371 61.9094 26.7311 61.9086 26.7993C61.9086 26.8676 61.8854 26.9607 61.7834 27.0213L50.0797 33.8982ZM11.0322 32.8695C4.85082 29.1093 1.71255 24.6815 1.95508 20.0659C2.22932 14.8434 6.80302 9.53551 13.8894 6.21145C25.6463 0.697844 44.6507 0.626137 54.2051 9.30758C61.816 16.2237 61.2066 21.6981 60.6702 23.5906L55.4992 20.4355C54.6337 19.9071 53.6396 19.6997 52.6694 19.803C50.8878 14.3252 44.5076 8.54614 33.9925 7.68824C30.3135 7.38776 26.3816 7.72239 22.3067 8.68187C19.1161 9.43306 17.3738 10.3225 15.4413 11.6039L16.5024 13.2582C18.2943 12.07 19.8197 11.2949 22.7445 10.606C26.6241 9.69256 30.3554 9.37331 33.8373 9.65757C43.4612 10.4421 49.2493 15.5698 50.8227 20.415L38.4007 27.8826C38.3527 27.9057 38.3048 27.9262 38.2576 27.9526C37.5274 28.3717 37.0904 29.1315 37.0878 29.9843L37.0732 35.4501C29.6073 37.4339 19.0638 37.7549 11.0322 32.8695ZM33.2949 44.2288C33.0455 44.3748 32.8141 44.4209 32.6907 44.3492C32.5698 44.2783 32.4945 44.0573 32.4936 43.7721C32.491 42.9005 33.12 41.7934 33.8639 41.3572L40.9931 37.2247L41 39.7618L33.2949 44.2288ZM38.3896 47.3045C38.1403 47.4504 37.908 47.4965 37.7854 47.4248C37.6646 47.354 37.5892 47.1329 37.5883 46.8486C37.5857 45.9771 38.2148 44.8699 38.9587 44.4337L46.0879 40.3004L46.0947 42.8374L38.3896 47.3045ZM43.6558 45.616L46.9679 43.6961C47.1497 43.5903 47.2627 43.3931 47.2619 43.1798L47.2516 39.2803C47.2508 39.0695 47.1402 38.8749 46.9611 38.769C46.782 38.6631 46.5609 38.6623 46.3801 38.7673L39.2243 42.9159L39.1703 42.8835C39.0624 42.8178 38.9955 42.6974 38.9955 42.566V42.2902L41.8732 40.6222C42.0549 40.5164 42.168 40.3192 42.1671 40.1058L42.1569 36.2064C42.156 35.9955 42.0454 35.8009 41.8663 35.695C41.6872 35.5892 41.4662 35.5884 41.2853 35.6934L39.0109 37.0114L39.0298 29.9919C39.0298 29.8067 39.1446 29.7137 39.2123 29.6744C39.28 29.6351 39.4171 29.5839 39.5748 29.6796L48.4377 35.0787C48.8713 35.3434 49.1396 35.8274 49.1387 36.3413L49.1052 48.2921C49.1052 48.4159 49.0538 48.4953 48.9999 48.5482L48.8756 48.631C48.8011 48.6618 48.688 48.6823 48.5602 48.6046L43.6558 45.616ZM61.1004 40.4583L51.0515 47.1764L51.0815 36.3464C51.0823 36.1048 51.0515 35.8683 51.0035 35.6371L61.8769 29.2484L61.9077 39.0225C61.9094 39.6115 61.6 40.1613 61.1004 40.4583Z" fill="#AAAAAA"/>
</g>
<defs>
<clipPath id="clip0">
<rect width="64" height="51" fill="white"/>
</clipPath>
</defs>
</svg>
